<svg xmlns="http://www.w3.org/2000/svg" width="31" height="31" viewBox="0 0 31 31"><defs><style>.a{fill:none;}.b{fill:#201f1f;}.c,.d,.e{stroke:none;}.d{fill:#262426;}.e{fill:#292727;}</style></defs><g class="a"><path class="c" d="M15.5,0A15.5,15.5,0,1,1,0,15.5,15.5,15.5,0,0,1,15.5,0Z"/><path class="d" d="M 15.5 0.8000011444091797 C 11.57349014282227 0.8000011444091797 7.881999969482422 2.329071044921875 5.10552978515625 5.105531692504883 C 2.329069137573242 7.882001876831055 0.7999992370605469 11.57349014282227 0.7999992370605469 15.50000095367432 C 0.7999992370605469 19.42650985717773 2.329069137573242 23.11800003051758 5.10552978515625 25.89447021484375 C 7.881999969482422 28.67093086242676 11.57349014282227 30.20000076293945 15.5 30.20000076293945 C 19.42650985717773 30.20000076293945 23.11800003051758 28.67093086242676 25.89447021484375 25.89447021484375 C 28.67092895507812 23.11800003051758 30.20000076293945 19.42650985717773 30.20000076293945 15.50000095367432 C 30.20000076293945 11.57349014282227 28.67092895507812 7.882001876831055 25.89447021484375 5.105531692504883 C 23.11800003051758 2.329071044921875 19.42650985717773 0.8000011444091797 15.5 0.8000011444091797 M 15.5 1.9073486328125e-06 C 24.06040954589844 1.9073486328125e-06 31 6.939590454101562 31 15.50000095367432 C 31 24.06041145324707 24.06040954589844 31 15.5 31 C 6.939590454101562 31 0 24.06041145324707 0 15.50000095367432 C 0 6.939590454101562 6.939590454101562 1.9073486328125e-06 15.5 1.9073486328125e-06 Z"/></g><g class="b" transform="translate(25.367 9.387) rotate(129)"><path class="c" d="M 15.01272773742676 9.529532432556152 L 16.08573150634766 2.165828943252563 L 16.16488265991211 1.622658967971802 L 15.61671161651611 1.594388961791992 L 0.5391536951065063 0.8169798851013184 L 0.5212016701698303 0.5291268229484558 L 16.48385620117188 1.378812670707703 L 15.34407806396484 9.516636848449707 L 15.01272773742676 9.529532432556152 Z"/><path class="e" d="M -0.01276779174804688 -9.5367431640625e-07 L 17.05461120605469 0.9084892272949219 L 15.7812614440918 9.999999046325684 L 14.43124198913574 10.05253887176514 L 15.59096145629883 2.093729019165039 L 0.06789207458496094 1.293349266052246 L -0.01276779174804688 -9.5367431640625e-07 Z"/></g></svg>