<svg xmlns="http://www.w3.org/2000/svg" width="31" height="31" viewBox="0 0 31 31"><defs><style>.a{fill:none;}.b{fill:#201f1f;}.c,.d{stroke:none;}.d{fill:#262426;}</style></defs><g class="a"><path class="c" d="M15.5,0A15.5,15.5,0,1,1,0,15.5,15.5,15.5,0,0,1,15.5,0Z"/><path class="d" d="M 15.5 0.8000011444091797 C 11.57349014282227 0.8000011444091797 7.881999969482422 2.329071044921875 5.10552978515625 5.105531692504883 C 2.329069137573242 7.882001876831055 0.7999992370605469 11.57349014282227 0.7999992370605469 15.50000095367432 C 0.7999992370605469 19.42650985717773 2.329069137573242 23.11800003051758 5.10552978515625 25.89447021484375 C 7.881999969482422 28.67093086242676 11.57349014282227 30.20000076293945 15.5 30.20000076293945 C 19.42650985717773 30.20000076293945 23.11800003051758 28.67093086242676 25.89447021484375 25.89447021484375 C 28.67092895507812 23.11800003051758 30.20000076293945 19.42650985717773 30.20000076293945 15.50000095367432 C 30.20000076293945 11.57349014282227 28.67092895507812 7.882001876831055 25.89447021484375 5.105531692504883 C 23.11800003051758 2.329071044921875 19.42650985717773 0.8000011444091797 15.5 0.8000011444091797 M 15.5 1.9073486328125e-06 C 24.06040954589844 1.9073486328125e-06 31 6.939590454101562 31 15.50000095367432 C 31 24.06041145324707 24.06040954589844 31 15.5 31 C 6.939590454101562 31 0 24.06041145324707 0 15.50000095367432 C 0 6.939590454101562 6.939590454101562 1.9073486328125e-06 15.5 1.9073486328125e-06 Z"/></g><g transform="translate(6.422 3.111)"><path class="b" d="M15.858,8.888V6.767A6.892,6.892,0,0,0,8.862,0a6.892,6.892,0,0,0-7,6.767V8.888A2.28,2.28,0,0,0,0,11.1V13.66a.459.459,0,0,0,.466.451.459.459,0,0,0,.466-.451V11.1a1.378,1.378,0,0,1,1.4-1.353H15.392a1.378,1.378,0,0,1,1.4,1.353v9.745a1.359,1.359,0,0,1-.933,1.276V19.4a.467.467,0,0,0-.933,0v2.8H2.332a1.378,1.378,0,0,1-1.4-1.353V17.279a.459.459,0,0,0-.466-.451A.459.459,0,0,0,0,17.279v3.564A2.3,2.3,0,0,0,2.332,23.1H15.392a2.3,2.3,0,0,0,2.332-2.256V11.1A2.28,2.28,0,0,0,15.858,8.888ZM5.317,8.843V6.767A3.492,3.492,0,0,1,8.862,3.339a3.492,3.492,0,0,1,3.545,3.429V8.843Zm8.022,0V6.767A4.411,4.411,0,0,0,8.862,2.436,4.411,4.411,0,0,0,4.384,6.767V8.843H2.8V6.767A5.973,5.973,0,0,1,8.862.9a5.973,5.973,0,0,1,6.063,5.865V8.843Zm0,0" transform="translate(0 0)"/><path class="b" d="M.466,333.39a.477.477,0,0,0,.33-.132.44.44,0,0,0,0-.638.477.477,0,0,0-.66,0,.44.44,0,0,0,0,.638A.477.477,0,0,0,.466,333.39Zm0,0" transform="translate(0 -317.488)"/><path class="b" d="M138.642,284.129a1.378,1.378,0,0,0,1.4-1.353v-2.4a2.4,2.4,0,0,0,1.125-2.029,2.52,2.52,0,0,0-5.037,0,2.406,2.406,0,0,0,1.113,2.022v2.4A1.378,1.378,0,0,0,138.642,284.129Zm-1.58-5.779a1.587,1.587,0,0,1,3.172,0,1.524,1.524,0,0,1-.87,1.369.449.449,0,0,0-.255.4v2.654a.467.467,0,0,1-.933,0v-2.66a.449.449,0,0,0-.253-.4A1.524,1.524,0,0,1,137.062,278.35Zm0,0" transform="translate(-129.78 -263.466)"/><path class="b" d="M320.466,379.9a.477.477,0,0,0,.33-.132.44.44,0,0,0,0-.638.477.477,0,0,0-.66,0,.44.44,0,0,0,0,.638A.478.478,0,0,0,320.466,379.9Zm0,0" transform="translate(-305.075 -361.901)"/></g></svg>