<svg xmlns="http://www.w3.org/2000/svg" xmlns:xlink="http://www.w3.org/1999/xlink" width="31" height="31" viewBox="0 0 31 31"><defs><style>.a{fill:none;}.b{clip-path:url(#a);}.c{fill:#2a2a2a;}</style><clipPath id="a"><rect class="a" width="31" height="31"/></clipPath></defs><g class="b"><path class="c" d="M374.41,55H374.2l-.087,0h-.035l-.055,0h-.037l-.058,0h-.035l-.077,0-.046,0h-.039l-.052,0h-.029l-.192-.011-.018,0-.067,0h0a15.475,15.475,0,0,1-10.426-5.142l-.843.843.843-.843a15.59,15.59,0,0,1-1.6-2.124l-1.727,1.727,1.727-1.727a15.5,15.5,0,1,1,14.207,7.272l-.213.012h-.016l-.06,0h-.029l-.055,0-.047,0-.067,0-.051,0h-.128l-.086,0h-.392ZM371.1,30.265c-3.034,1.229-3.041,3.864-2.647,6.278.129.9.271,1.676.272,1.68a.471.471,0,0,1-.267.511s-.318.2-.318.946c.1,1.373.407,1.519.7,1.658a1.277,1.277,0,0,1,.814,1.036,5.323,5.323,0,0,0,.912,2.4,2.515,2.515,0,0,1,.539,1.671c0,2.719-1.024,4.07-4.289,5.408a14.411,14.411,0,0,0,6.793,2.18h0c.084.006.167.01.252.013h.006l.109,0H374l.109,0h.007l.117,0h.531l.117,0h.006l.112,0h.025l.113,0h0a14.429,14.429,0,0,0,7.048-2.193c-3.263-1.339-4.289-2.69-4.289-5.406a2.513,2.513,0,0,1,.539-1.671,5.343,5.343,0,0,0,.912-2.4,1.276,1.276,0,0,1,.812-1.036c.292-.141.593-.285.7-1.694,0-.718-.323-.913-.336-.921a.5.5,0,0,1-.248-.5c.232-1.249.616-5.143-.641-6.6A3.279,3.279,0,0,0,377.17,30.6a.906.906,0,0,1-.126-.016.759.759,0,0,1-.392-.246,3.412,3.412,0,0,0-2.48-.713A8.208,8.208,0,0,0,371.1,30.265Zm6.2-.613A4.2,4.2,0,0,1,380.348,31c1.568,1.822,1.069,5.977.9,7.1a2.108,2.108,0,0,1,.554,1.574c-.137,1.836-.661,2.231-1.231,2.5-.213.1-.252.122-.3.36a6.183,6.183,0,0,1-1.059,2.761,1.624,1.624,0,0,0-.374,1.141c0,2.2.6,3.367,4.3,4.771a14.56,14.56,0,1,0-21.105-4.208l1.31-1.31-1.31,1.31a14.647,14.647,0,0,0,1.577,2.142l.972-.972-.972.972a14.7,14.7,0,0,0,2.258,2.066c3.693-1.4,4.3-2.572,4.3-4.771a1.631,1.631,0,0,0-.374-1.141,6.176,6.176,0,0,1-1.061-2.761c-.045-.238-.084-.257-.3-.36-.569-.275-1.093-.669-1.23-2.469a2.177,2.177,0,0,1,.55-1.6c-.055-.309-.144-.844-.228-1.426-.425-2.609-.444-5.8,3.225-7.289a9.163,9.163,0,0,1,3.432-.713A4.483,4.483,0,0,1,377.3,29.652Z" transform="translate(-359 -24)"/></g></svg>